<?xml version="1.0" encoding="UTF-8"?>
<svg id="_レイヤー_2" xmlns="http://www.w3.org/2000/svg" version="1.1" xmlns:xlink="http://www.w3.org/1999/xlink" viewBox="0 0 128.1 131.5">
  <!-- Generator: Adobe Illustrator 29.2.1, SVG Export Plug-In . SVG Version: 2.1.0 Build 116)  -->
  <defs>
    <style>
      .st0 {
        fill: #b1935f;
      }

      .st1 {
        fill-rule: evenodd;
      }

      .st1, .st2 {
        fill: #b0925f;
      }
    </style>
  </defs>
  <g id="BASE">
    <path class="st2" d="M80.2,203.9c0,2.6-4.9,4.9-10.7,4.9h-10.5c-5.9,0-10.7-2-10.7-4.9s4.9-4.9,10.7-4.9h10.5c5.8,0,10.7,2.1,10.7,4.9Z"/>
    <path class="st2" d="M64.1,225.9c-2.6,0-4.9-4.9-4.9-10.7v-15.7c0-5.9,2-10.7,4.9-10.7s4.9,4.9,4.9,10.7v15.3c0,5.9-2,10.7-4.9,10.7v.4Z"/>
    <path class="st2" d="M112.2,312.4c0,4.3-7.7,7.9-17.4,7.9h-61.7c-9.5,0-17.4-3.6-17.4-7.9s7.7-7.9,17.4-7.9h61.9c9.5,0,17.4,3.6,17.4,7.9h-.2Z"/>
    <path class="st2" d="M27,246.4c2,15.6,10.2,35,16.9,49.1h12v-55.5c0-9.5-9.2-13.3-17.4-11.8-5.1,1-13,6.7-11.8,18.2,0,0,.3,0,.3,0Z"/>
    <path class="st2" d="M16.7,240.7s-.5-1.5-1.3-1.8-1.5-.3-2.3,0c0,0-2,.8-4.1,2.8-11.4,10.5-14.5,26.9,6,53.8h18.4c-5.7-12.3-15.1-31.7-16.9-50.9v-4.1l.2.2Z"/>
    <path class="st2" d="M101.2,247.4c-2,15.6-10.2,35-16.9,49.1h-12v-55.5c0-9.5,9.2-13.3,17.4-11.8,5.1,1,13,6.7,11.8,18.2,0,0-.3,0-.3,0Z"/>
    <path class="st0" d="M111.4,241.8s.5-1.5,1.3-1.8,1.5-.3,2.3,0c0,0,2,.8,4.1,2.8,11.5,10.5,14.6,26.9-5.9,53.7h-18.4c5.6-12.3,15.1-31.7,16.9-50.9v-4.1l-.3.3Z"/>
    <circle class="st2" cx="64.1" cy="292.4" r="2.8"/>
    <circle class="st2" cx="64.1" cy="281.1" r="2.8"/>
    <circle class="st2" cx="64.1" cy="269.6" r="2.8"/>
    <path class="st2" d="M66.9,258.1c0,1.5-1.3,2.8-2.8,2.8s-2.8-1.3-2.8-2.8,1.3-2.8,2.8-2.8,2.8,1.3,2.8,2.8Z"/>
    <path class="st2" d="M66.9,246.9c0,1.5-1.3,2.8-2.8,2.8s-2.8-1.3-2.8-2.8,1.3-2.8,2.8-2.8,2.8,1.2,2.8,2.8Z"/>
    <path class="st2" d="M66.9,235.4c0,1.5-1.3,2.8-2.8,2.8s-2.8-1.3-2.8-2.8,1.3-2.8,2.8-2.8,2.8,1.2,2.8,2.8Z"/>
  </g>
  <g>
    <rect class="st2" x="24.5" y="89.9" width="79.2" height="7"/>
    <path class="st2" d="M105.3,105.4H22.9c-2.3,0-4.2-1.9-4.2-4.2s1.9-4.2,4.2-4.2h82.4c2.3,0,4.2,1.9,4.2,4.2s-1.9,4.2-4.2,4.2Z"/>
    <path class="st1" d="M66.4,18.5s0,0,0,0v-4.6h1.6c1.2,0,2.3-1,2.3-2.2s-1-2.2-2.3-2.2h-1.6v-1.6c0-1.2-1-2.2-2.3-2.2s-2.3,1-2.3,2.2v1.6h-1.7c-1.2,0-2.3,1-2.3,2.2s1,2.2,2.3,2.2h1.7v4.6s0,0,0,0c-2,.9-3.4,2.8-3.4,5.1s2.5,5.5,5.6,5.5,5.6-2.5,5.6-5.5-1.4-4.2-3.4-5Z"/>
    <path class="st1" d="M70.9,32.1c-1.8-5.8-11.7-5.8-13.5,0-3.3,10.7-2.5,28.9,3,57.8h7.5c5.6-28.8,6.3-47.1,3-57.8ZM64.2,34.3c.6,0,1.2.5,1.2,1.1s-.5,1.1-1.2,1.1-1.2-.5-1.2-1.1.5-1.1,1.2-1.1ZM64.2,41.8c.9,0,1.7.7,1.7,1.6s-.8,1.6-1.7,1.6-1.7-.7-1.7-1.6.8-1.6,1.7-1.6ZM64.2,49.5c1,0,1.9.8,1.9,1.8s-.8,1.8-1.9,1.8-1.9-.8-1.9-1.8.8-1.8,1.9-1.8ZM64.2,84.7c-.8,0-1.4-.6-1.4-1.3s.6-1.3,1.4-1.3,1.4.6,1.4,1.3-.6,1.3-1.4,1.3ZM64.2,77c-.9,0-1.7-.7-1.7-1.6s.8-1.6,1.7-1.6,1.7.7,1.7,1.6-.8,1.6-1.7,1.6ZM64.2,69.3c-1.1,0-2-.8-2-1.9s.9-1.9,2-1.9,2,.9,2,1.9-.9,1.9-2,1.9ZM64.2,61.8c-1.3,0-2.4-1-2.4-2.3s1.1-2.3,2.4-2.3,2.4,1,2.4,2.3-1.1,2.3-2.4,2.3Z"/>
    <path class="st1" d="M56,38.8c.2-1.3.4-2.6.7-3.7-4.5-2.3-10.2-3.3-15.8-2.8-5.1.5-9.9,2.4-13.4,5.8-9.6,9.1-6.9,21.6.1,30.5,2.9,3.7,6.7,6.2,9.7,9.7,2.6,3,4.4,6.6,4.2,11.6h2c3.5-14-14.7-26.5-9.5-41.2,3-8.6,11.2-13.1,22-9.9Z"/>
    <path class="st1" d="M12.2,53.1c.3-7,4.8-11.8,12.8-12.3.7-.9,1.5-1.8,2.3-2.6-8.9-2.5-17.3-1.8-23.1,4.7-1.8,2-3.2,4.5-3.7,7.3-.9,4.7.4,10,3.4,14.4,2.8,4.1,6.9,7.4,11.2,10.2,5.8,3.7,11.7,6.9,14.1,15.2h1.9c-.8-13.2-19.5-22.6-18.9-36.8Z"/>
    <path class="st1" d="M72.3,38.8c-.2-1.3-.4-2.6-.7-3.7,4.5-2.3,10.2-3.3,15.8-2.8,5.1.5,9.9,2.4,13.4,5.8,9.6,9.1,6.9,21.6-.1,30.5-2.9,3.7-6.7,6.2-9.7,9.7-2.6,3-4.4,6.6-4.2,11.6h-2c-3.5-14,14.7-26.5,9.5-41.2-3-8.6-11.2-13.1-22-9.9Z"/>
    <path class="st1" d="M116.1,53.1c-.3-7-4.8-11.8-12.8-12.3-.7-.9-1.5-1.8-2.3-2.6,8.9-2.5,17.3-1.8,23.1,4.7,1.8,2,3.2,4.5,3.7,7.3.9,4.7-.4,10-3.4,14.4-2.8,4.1-6.9,7.4-11.2,10.2-5.8,3.7-11.7,6.9-14,15.2h-1.9c.8-13.2,19.5-22.6,18.8-36.8Z"/>
  </g>
</svg>