<?xml version="1.0" encoding="utf-8"?>
<!-- Generator: Adobe Illustrator 28.1.0, SVG Export Plug-In . SVG Version: 6.00 Build 0)  -->
<svg version="1.1" id="_レイヤー_2" xmlns="http://www.w3.org/2000/svg" xmlns:xlink="http://www.w3.org/1999/xlink" x="0px"
	 y="0px" viewBox="0 0 128.1 131.5" style="enable-background:new 0 0 128.1 131.5;" xml:space="preserve">
<style type="text/css">
	.st0{fill:#B0925F;}
	.st1{fill:#B1935F;}
</style>
<g id="BASE">
	<path class="st0" d="M80.2,15.1c0,2.6-4.9,4.9-10.7,4.9H59c-5.9,0-10.7-2-10.7-4.9s4.9-4.9,10.7-4.9h10.5
		C75.3,10.2,80.2,12.3,80.2,15.1z"/>
	<path class="st0" d="M64.1,37.1c-2.6,0-4.9-4.9-4.9-10.7V10.7c0-5.9,2-10.7,4.9-10.7c2.8,0,4.9,4.9,4.9,10.7v15.3
		c0,5.9-2,10.7-4.9,10.7V37.1z"/>
	<path class="st0" d="M112.2,123.6c0,4.3-7.7,7.9-17.4,7.9H33.1c-9.5,0-17.4-3.6-17.4-7.9s7.7-7.9,17.4-7.9H95
		c9.5,0,17.4,3.6,17.4,7.9H112.2z"/>
	<path class="st0" d="M27,57.6c2,15.6,10.2,35,16.9,49.1h12V51.2c0-9.5-9.2-13.3-17.4-11.8c-5.1,1-13,6.7-11.8,18.2H27z"/>
	<path class="st0" d="M16.7,51.9c0,0-0.5-1.5-1.3-1.8c-0.8-0.3-1.5-0.3-2.3,0c0,0-2,0.8-4.1,2.8C-2.4,63.4-5.5,79.8,15,106.7h18.4
		C27.7,94.4,18.3,75,16.5,55.8c0-2.8,0-4.1,0-4.1L16.7,51.9z"/>
	<path class="st0" d="M101.2,58.6c-2,15.6-10.2,35-16.9,49.1h-12V52.2c0-9.5,9.2-13.3,17.4-11.8c5.1,1,13,6.7,11.8,18.2H101.2z"/>
	<path class="st1" d="M111.4,53c0,0,0.5-1.5,1.3-1.8c0.8-0.3,1.5-0.3,2.3,0c0,0,2,0.8,4.1,2.8c11.5,10.5,14.6,26.9-5.9,53.7H94.8
		c5.6-12.3,15.1-31.7,16.9-50.9c0-2.8,0-4.1,0-4.1L111.4,53z"/>
	<circle class="st0" cx="64.1" cy="103.6" r="2.8"/>
	<circle class="st0" cx="64.1" cy="92.3" r="2.8"/>
	<circle class="st0" cx="64.1" cy="80.8" r="2.8"/>
	<path class="st0" d="M66.9,69.3c0,1.5-1.3,2.8-2.8,2.8s-2.8-1.3-2.8-2.8s1.3-2.8,2.8-2.8S66.9,67.8,66.9,69.3z"/>
	<path class="st0" d="M66.9,58.1c0,1.5-1.3,2.8-2.8,2.8s-2.8-1.3-2.8-2.8s1.3-2.8,2.8-2.8S66.9,56.5,66.9,58.1z"/>
	<path class="st0" d="M66.9,46.6c0,1.5-1.3,2.8-2.8,2.8s-2.8-1.3-2.8-2.8s1.3-2.8,2.8-2.8S66.9,45,66.9,46.6z"/>
</g>
</svg>
