<?xml version="1.0" encoding="utf-8"?>
<!-- Generator: Adobe Illustrator 28.1.0, SVG Export Plug-In . SVG Version: 6.00 Build 0)  -->
<svg version="1.1" id="_レイヤー_2" xmlns="http://www.w3.org/2000/svg" xmlns:xlink="http://www.w3.org/1999/xlink" x="0px"
	 y="0px" viewBox="0 0 525 24.8" style="enable-background:new 0 0 525 24.8;" xml:space="preserve">
<style type="text/css">
	.st0{fill:#42210B;}
</style>
<g id="BASE">
	<path class="st0" d="M3.3,5.9c0-3.4,0-4-1.5-4.1H0.5c0,0-0.2-0.9,0-1.1c2-0.2,4.5-0.2,7.9-0.2c2.3,0,4.3,0.2,5.9,1.1
		c1.7,0.9,3,2.5,3,5c0,3.4-2.7,5.2-4.5,5.9c-0.1,0.2,0,0.6,0.1,0.8c2.8,4.6,4.7,7.5,7.1,9.5c0.6,0.6,1.5,0.9,2.5,0.9
		c0.1,0,0.2,0.4,0,0.5c-0.4,0-0.9,0.2-1.5,0.2c-3,0-4.9-0.9-7.3-4.5c-0.9-1.3-2.4-3.8-3.4-5.3c-0.5-0.8-1.1-1.2-2.5-1.2
		c-1.7,0-1.7,0-1.7,0.8v4.5c0,3.8,0,4.1,2.1,4.5h0.7c0,0,0.1,0.9,0,0.9c-1.5,0-2.8,0-4.3,0s-2.7,0-4.5,0c-0.2,0-0.2-0.6,0-0.8h0.9
		c2-0.4,2.1-0.8,2.1-4.5C3.3,18.8,3.3,5.9,3.3,5.9z M6.1,11c0,0.6,0,1.1,0,1.2c0,0,0.6,0.2,2.5,0.2c1.3,0,2.6-0.1,3.7-0.9
		c0.9-0.7,1.8-2,1.8-4.4c0-2.8-1.8-5.4-5.7-5.4C6.1,1.7,6,1.8,6,2.8v8.3L6.1,11z"/>
	<path class="st0" d="M31.3,5.9c0-3.7,0-4.3-2.1-4.5h-0.6c0,0-0.1-0.8,0-0.9c1.5,0,2.7,0,4.3,0h6.6c2.3,0,4.4,0,4.9,0
		c0.2,0.6,0.5,3.2,0.6,4.7c-0.1,0.2-0.7,0.2-0.9,0c-0.5-1.7-0.8-3-2.7-3.4c-0.7-0.2-1.9-0.2-3.4-0.2h-2.6c-1.1,0-1.1,0-1.1,1.4v7.1
		c0,0.9,0,0.9,1.2,0.9h2c1.5,0,2.6,0,3-0.2c0.5-0.1,0.7-0.4,0.8-1.3l0.2-1.4c0,0,0.8-0.2,0.9,0c0,0.8-0.1,2.3-0.1,3.6
		s0.1,2.6,0.1,3.4c-0.1,0.2-0.7,0.2-0.9,0L41,13.6c-0.1-0.6-0.4-1.2-1.1-1.3c-0.5-0.1-1.3-0.2-2.7-0.2h-2c-1.1,0-1.2,0-1.2,0.9v5
		c0,1.9,0,3.1,0.7,3.7c0.5,0.5,1.2,0.8,4.3,0.8c2.7,0,3.8-0.1,4.5-0.5c0.6-0.4,1.5-1.7,2.5-3.4c0.2-0.2,0.7,0,0.9,0.2
		c-0.2,1.2-1.2,4-1.5,5c-3.2,0-6.4,0-9.6,0h-3.2c-1.5,0-2.7,0-4.9,0c-0.2,0-0.2-0.7,0-0.8H29c2-0.2,2.3-0.8,2.3-4.5V5.9H31.3z"/>
	<path class="st0" d="M57,3.1C59.6,1.1,63,0,66.6,0c1.9,0,4.6,0.4,6.3,0.8c0.5,0,0.7,0.2,0.9,0.1c0,0.8,0.2,3.1,0.5,5.2
		c-0.2,0.2-0.7,0.2-0.9,0c-0.6-2.4-2.1-5.2-7.3-5.2C60.6,0.9,56,4.4,56,11.7s4.7,11.6,10.5,11.6c4.6,0,6.6-3,7.5-5.1
		c0.2-0.1,0.8,0,0.9,0.1c-0.2,1.9-1.2,4.1-1.7,4.9c-0.5,0-0.8,0.2-1.2,0.4c-0.8,0.2-3.3,0.8-5.7,0.8c-3.2,0-6.3-0.6-8.9-2.4
		c-2.8-2-5.1-5.2-5.1-9.8c0-3.9,1.8-7.3,4.5-9.5L57,3.1z"/>
	<path class="st0" d="M81,12.6C81,5.4,86.3,0,93.6,0c8.2,0,12.3,5.9,12.3,12.2c0,7.2-5.4,12.4-12.3,12.4C85.7,24.6,81,19,81,12.6z
		 M102.4,13.3c0-5.9-2.6-12.2-9.4-12.2c-3.7,0-8.5,2.5-8.5,10.3c0,5.2,2.6,12.1,9.6,12.1C98.4,23.5,102.4,20.3,102.4,13.3z"/>
	<path class="st0" d="M124.3,14.6c0.8,1.7,1.7,3.3,2.5,4.9l0,0c0.9-1.7,1.9-3.6,2.7-5.3l3.3-6.8c1.7-3.2,2.6-5.2,2.7-6.9
		c1.2,0,2,0,2.7,0c0.9,0,2,0,3.2,0c0.2,0.1,0.2,0.7,0,0.9h-0.7c-2.3,0.2-2.5,0.9-2.5,3.4c0,3.8,0,10.4,0.4,15.5c0,1.8,0,2.7,1.8,2.8
		h1.2c0,0,0.1,0.8,0,0.9c-1.4,0-3,0-4.1,0c-1.2,0-2.8,0-4.3,0c-0.2-0.1-0.2-0.7,0-0.8h1.1c1.8-0.2,1.8-0.8,1.8-3.1V5.3h-0.1
		c0,0-1.7,3.2-2.4,4.6l-3.2,6.3c-1.7,3.1-3.2,6.5-3.9,8.2c0,0-0.2,0.1-0.4,0.1c0,0-0.2,0-0.4-0.1c-0.6-1.9-2.4-5.3-3.1-7.1l-3.2-6.9
		c-0.7-1.7-1.5-3.4-2.3-5.1l0,0c-0.1,2.3-0.2,4.3-0.4,6.4c0,2.1-0.2,5.3-0.2,8.4c0,2.6,0.2,3.2,1.7,3.3h1.3c0,0,0.2,0.9,0,0.9
		c-1.2,0-2.6,0-3.9,0c-1.2,0-2.4,0-3.7,0c-0.2-0.1-0.2-0.7,0-0.8h0.8c1.5-0.4,2-0.6,2.3-3.1c0.2-2.4,0.4-4.3,0.6-7.8
		c0.1-3,0.4-5.9,0.4-7.9c0-2.3-0.2-2.7-2.4-3.1h-0.6c0,0-0.1-0.8,0.1-0.9c1.1,0,1.9,0,2.8,0c0.8,0,1.8,0,3,0
		c-0.1,1.4,0.7,3.6,1.9,5.9l4,8.2L124.3,14.6z"/>
	<path class="st0" d="M160.8,14.6c0.8,1.7,1.7,3.3,2.5,4.9l0,0c0.9-1.7,1.9-3.6,2.7-5.3l3.3-6.8c1.7-3.2,2.6-5.2,2.7-6.9
		c1.2,0,2,0,2.7,0c0.9,0,2,0,3.2,0c0.2,0.1,0.2,0.7,0,0.9h-0.7c-2.3,0.2-2.5,0.9-2.5,3.4c0,3.8,0,10.4,0.4,15.5c0,1.8,0,2.7,1.8,2.8
		h1.2c0,0,0.1,0.8,0,0.9c-1.4,0-3,0-4.1,0s-2.8,0-4.3,0c-0.2-0.1-0.2-0.7,0-0.8h1.1c1.8-0.2,1.8-0.8,1.8-3.1V5.3h-0.1
		c0,0-1.7,3.2-2.4,4.6l-3.2,6.3c-1.7,3.1-3.2,6.5-3.9,8.2c0,0-0.2,0.1-0.4,0.1c0,0-0.2,0-0.4-0.1c-0.6-1.9-2.4-5.3-3.1-7.1l-3.2-6.9
		c-0.7-1.7-1.5-3.4-2.3-5.1l0,0c-0.1,2.3-0.2,4.3-0.4,6.4c0,2.1-0.2,5.3-0.2,8.4c0,2.6,0.2,3.2,1.7,3.3h1.3c0,0,0.2,0.9,0,0.9
		c-1.2,0-2.6,0-3.9,0c-1.2,0-2.4,0-3.7,0c-0.2-0.1-0.2-0.7,0-0.8h0.8c1.5-0.4,2-0.6,2.3-3.1c0.2-2.4,0.4-4.3,0.6-7.8
		c0.1-3,0.4-5.9,0.4-7.9c0-2.3-0.2-2.7-2.4-3.1h-0.6c0,0-0.1-0.8,0.1-0.9c1.1,0,1.9,0,2.8,0c0.8,0,1.8,0,3,0
		c-0.1,1.4,0.7,3.6,1.9,5.9l4,8.2L160.8,14.6z"/>
	<path class="st0" d="M187.9,5.9c0-3.7,0-4.3-2.1-4.5h-0.6c0,0-0.1-0.8,0-0.9c1.5,0,2.7,0,4.1,0h6.8c2.3,0,4.4,0,4.9,0
		c0.2,0.6,0.5,3.2,0.6,4.7c-0.1,0.2-0.7,0.2-0.9,0c-0.6-1.7-0.8-3-2.7-3.4c-0.7-0.2-1.9-0.2-3.4-0.2h-2.6c-1.1,0-1.1,0-1.1,1.4v7.1
		c0,0.9,0,0.9,1.2,0.9h2c1.5,0,2.6,0,3.1-0.2c0.5-0.1,0.7-0.4,0.8-1.3l0.2-1.4c0,0,0.8-0.2,0.9,0c0,0.8-0.1,2.3-0.1,3.6
		s0.1,2.6,0.1,3.4c-0.1,0.2-0.7,0.2-0.9,0l-0.4-1.4c-0.1-0.6-0.4-1.2-1.1-1.3c-0.5-0.1-1.3-0.2-2.7-0.2h-2c-1.1,0-1.2,0-1.2,0.9v5
		c0,1.9,0,3.1,0.7,3.7c0.5,0.5,1.2,0.8,4.3,0.8c2.7,0,3.8-0.1,4.5-0.5c0.6-0.4,1.7-1.7,2.5-3.4c0.2-0.2,0.7,0,0.9,0.2
		c-0.2,1.2-1.2,4-1.7,5c-3.2,0-6.4,0-9.6,0h-3.2c-1.5,0-2.7,0-4.9,0c-0.2,0-0.2-0.7,0-0.8h1.2c2-0.2,2.3-0.8,2.3-4.5V5.9H187.9z"/>
	<path class="st0" d="M231.6,18c0,1.1,0,5.3,0,6.3c0,0.2-0.2,0.4-0.7,0.4c-0.5-0.6-1.4-1.9-4.5-5.3l-8.3-9.4c-0.9-1.1-3.4-4-4.1-4.9
		l0,0c0,0-0.2,1.2-0.2,2.4v7.8c0,1.7,0,6.3,0.6,7.3c0.2,0.4,0.9,0.6,1.8,0.7h1.1c0,0,0.2,0.8,0,0.9c-1.7,0-2.8,0-4.1,0
		c-1.5,0-2.5,0-3.7,0c-0.2-0.1-0.2-0.7,0-0.8h0.9c0.8-0.2,1.4-0.5,1.5-0.8c0.5-1.3,0.5-5.7,0.5-7.3V4.9c0-0.9,0-1.8-0.8-2.6
		c-0.5-0.5-1.3-0.7-2.3-0.8h-0.6c0,0-0.2-0.8,0-0.9c1.5,0,3.4,0,4,0s1.2,0,1.7,0c0.7,1.8,5,6.5,6,7.8l3.4,3.9
		c2.5,2.7,4.1,4.7,5.9,6.4l0,0c0,0,0.1-0.7,0.1-1.5V9.5c0-1.7,0-6.3-0.7-7.3c-0.2-0.4-0.8-0.6-2.3-0.7h-0.6c0,0-0.2-0.8,0-0.9
		c1.7,0,2.8,0,4.1,0c1.5,0,2.5,0,3.7,0c0.2,0.2,0.2,0.7,0,0.9h-0.5c-1.2,0.2-1.9,0.6-2,0.8c-0.6,1.3-0.5,5.7-0.5,7.3v8.5L231.6,18z"
		/>
	<path class="st0" d="M244.1,5.2c0-2.5-0.2-3.2-1.7-3.4h-0.8c0,0-0.4-0.8,0-0.9c3.1-0.2,5.9-0.2,8.9-0.2s5.6,0.2,7.8,1.1
		c4.9,1.8,7.2,5.8,7.2,10.5s-2.1,8.4-6.3,10.7c-2.4,1.2-5.2,1.7-7.9,1.7c-2.3,0-4.5-0.2-5.8-0.2c-1.5,0-2.7,0-4.5,0
		c-0.2,0-0.2-0.7,0-0.8h0.8c2-0.4,2.1-0.8,2.1-4.5V5.2H244.1z M247,17.9c0,1.9,0,3.1,0.7,3.9c0.8,1.1,2.1,1.4,4.4,1.4
		c6.9,0,10-4.5,10-11.1c0-3.9-1.9-10.5-11.3-10.5c-2.1,0-3.2,0.2-3.6,0.5c-0.2,0.2-0.4,1.1-0.4,2.7v13.1H247z"/>
	<path class="st0" d="M274.6,5.9c0-3.7,0-4.3-2.1-4.5h-0.6c0,0-0.1-0.8,0-0.9c1.5,0,2.7,0,4.3,0h6.6c2.3,0,4.4,0,4.9,0
		c0.2,0.6,0.5,3.2,0.6,4.7c-0.1,0.2-0.7,0.2-0.9,0c-0.5-1.7-0.8-3-2.7-3.4c-0.7-0.2-1.9-0.2-3.4-0.2h-2.6c-1.1,0-1.1,0-1.1,1.4v7.1
		c0,0.9,0,0.9,1.2,0.9h2c1.5,0,2.6,0,3-0.2c0.5-0.1,0.7-0.4,0.8-1.3l0.2-1.4c0,0,0.8-0.2,0.9,0c0,0.8-0.1,2.3-0.1,3.6
		s0.1,2.6,0.1,3.4c-0.1,0.2-0.7,0.2-0.9,0l-0.4-1.4c-0.1-0.6-0.4-1.2-1.1-1.3c-0.5-0.1-1.3-0.2-2.7-0.2h-2c-1.1,0-1.2,0-1.2,0.9v5
		c0,1.9,0,3.1,0.7,3.7c0.5,0.5,1.2,0.8,4.3,0.8c2.7,0,3.8-0.1,4.5-0.5c0.6-0.4,1.5-1.7,2.5-3.4c0.2-0.2,0.7,0,0.9,0.2
		c-0.2,1.2-1.2,4-1.5,5c-3.2,0-6.4,0-9.6,0h-3.2c-1.5,0-2.7,0-4.9,0c-0.2,0-0.2-0.7,0-0.8h1.2c2-0.2,2.3-0.8,2.3-4.5V5.9H274.6z"/>
	<path class="st0" d="M299.2,5.2c0-2.5-0.2-3.2-1.7-3.4h-0.8c0,0-0.4-0.8,0-0.9c3.1-0.2,5.9-0.2,8.9-0.2c3,0,5.6,0.2,7.8,1.1
		c4.9,1.8,7.2,5.8,7.2,10.5s-2.1,8.4-6.3,10.7c-2.4,1.2-5.2,1.7-7.9,1.7c-2.3,0-4.5-0.2-5.8-0.2c-1.5,0-2.7,0-4.5,0
		c-0.2,0-0.2-0.7,0-0.8h0.8c2-0.4,2.1-0.8,2.1-4.5V5.2H299.2z M302,17.9c0,1.9,0,3.1,0.7,3.9c0.8,1.1,2.1,1.4,4.4,1.4
		c6.9,0,10-4.5,10-11.1c0-3.9-1.9-10.5-11.3-10.5c-2.1,0-3.2,0.2-3.6,0.5c-0.2,0.2-0.4,1.1-0.4,2.7v13.1H302z"/>
	<path class="st0" d="M341.1,5.9c0-3.4,0-4-1.5-4.1h-1.2c0,0-0.2-0.9,0-1.1c2-0.2,4.5-0.2,7.9-0.2c2.3,0,4.3,0.2,5.9,1.1
		c1.7,0.9,3,2.5,3,5c0,3.4-2.7,5.2-4.5,5.9c-0.1,0.2,0,0.6,0.1,0.8c2.8,4.6,4.7,7.5,7.1,9.5c0.6,0.6,1.5,0.9,2.5,0.9
		c0.1,0,0.2,0.4,0,0.5c-0.4,0-0.9,0.2-1.5,0.2c-3,0-4.9-0.9-7.3-4.5c-0.9-1.3-2.4-3.8-3.4-5.3c-0.5-0.8-1.1-1.2-2.5-1.2
		c-1.7,0-1.7,0-1.7,0.8v4.5c0,3.8,0,4.1,2.1,4.5h0.7c0,0,0.1,0.9,0,0.9c-1.5,0-2.8,0-4.3,0c-1.4,0-2.7,0-4.5,0c-0.2,0-0.2-0.6,0-0.8
		h0.9c2-0.4,2.1-0.8,2.1-4.5C341.1,18.8,341.1,5.9,341.1,5.9z M343.9,11c0,0.6,0,1.1,0,1.2c0,0,0.6,0.2,2.5,0.2
		c1.3,0,2.6-0.1,3.7-0.9c0.9-0.7,1.8-2,1.8-4.4c0-2.8-1.8-5.4-5.7-5.4c-2.3,0-2.4,0.1-2.4,1.2v8.3L343.9,11z"/>
	<path class="st0" d="M380,15.8c-0.2-0.8-0.4-0.9-1.4-0.9h-5.3c-0.9,0-1.1,0-1.3,0.8l-1.3,3.8c-0.5,1.7-0.8,2.6-0.8,3
		c0,0.5,0.1,0.6,1.1,0.7h1.2c0,0,0.2,0.8,0,0.9c-0.9,0-2,0-3.7,0c-1.2,0-2.5,0-3.4,0c-0.2-0.1-0.2-0.7,0-0.8h1.2
		c0.8-0.2,1.7-0.6,2.1-1.9c0.6-1.7,1.7-3.9,3.1-7.9l3.7-9.6c0.5-1.3,0.7-2,0.6-2.5c0.8-0.2,1.4-0.9,1.9-1.3c0.2,0,0.5,0,0.5,0.4
		c0.5,1.5,1.1,3.2,1.5,4.7l4.9,14.3c1.1,3.1,1.5,3.6,3.1,3.8h0.9c0,0,0.1,0.8,0,0.9c-1.4,0-2.7,0-4.3,0c-1.7,0-3.1,0-4.1,0
		c-0.2-0.1-0.4-0.7,0-0.8h1.1c0.7-0.2,1.3-0.4,1.3-0.7c0-0.4-0.2-1.1-0.5-1.9l-1.5-4.9L380,15.8z M373,12.7
		c-0.2,0.8-0.2,0.8,0.7,0.8h4.4c1.1,0,1.1-0.1,0.8-1.1L377,6.6c-0.2-0.8-0.6-1.8-0.8-2.3l0,0c0,0-0.5,1.1-0.8,2.1l-2.3,6.2H373z"/>
	<path class="st0" d="M416.1,18c0,1.1,0,5.3,0,6.3c0,0.2-0.2,0.4-0.7,0.4c-0.5-0.6-1.4-1.9-4.5-5.3l-8.3-9.4c-0.9-1.1-3.4-4-4.1-4.9
		l0,0c0,0-0.1,1.2-0.1,2.4v7.8c0,1.7,0,6.3,0.6,7.3c0.2,0.4,0.9,0.6,1.8,0.7h1.1c0,0,0.1,0.8,0,0.9c-1.5,0-2.8,0-4.1,0
		c-1.5,0-2.5,0-3.7,0c-0.2-0.1-0.2-0.7,0-0.8h0.9c0.8-0.2,1.4-0.5,1.5-0.8c0.5-1.3,0.5-5.7,0.5-7.3V4.9c0-0.9,0-1.8-0.8-2.6
		c-0.5-0.5-1.3-0.7-2.3-0.8h-0.6c0,0-0.2-0.8,0-0.9c1.5,0,3.4,0,4,0c0.6,0,1.2,0,1.7,0c0.7,1.8,5,6.5,6,7.8l3.4,3.9
		c2.5,2.7,4.1,4.7,5.9,6.4l0,0c0,0,0.1-0.7,0.1-1.5V9.5c0-1.7,0-6.3-0.7-7.3c-0.2-0.4-0.8-0.6-2.3-0.7h-0.6c0,0-0.2-0.8,0-0.9
		c1.7,0,2.8,0,4.1,0c1.5,0,2.5,0,3.7,0c0.2,0.2,0.2,0.7,0,0.9h-0.5c-1.2,0.2-1.9,0.6-2,0.8c-0.6,1.3-0.5,5.7-0.5,7.3v8.5L416.1,18z"
		/>
	<path class="st0" d="M428.8,5.9c0-3.8,0-4.3-2.1-4.5h-0.9c0,0-0.1-0.8,0-0.9c1.8,0,2.8,0,4.5,0c1.4,0,2.6,0,4.1,0
		c0.2,0,0.2,0.7,0,0.9h-0.7c-2,0.2-2.1,0.8-2.1,4.5v4.1c0,0.7,0,1.3,0.5,1.3c0.4,0,0.7-0.2,0.9-0.4c0.5-0.5,1.4-1.3,1.8-1.7l3.8-3.8
		c0.7-0.6,2.5-2.5,2.7-3c0.2-0.2,0.2-0.5,0.2-0.6c0-0.1-0.1-0.2-0.6-0.4l-0.9-0.2c0,0-0.2-0.7,0-0.9c1.2,0,2.7,0,3.9,0
		c1.2,0,2.5,0,3.6,0c0.2,0.2,0.2,0.7,0,0.9c-0.9,0-2.4,0.5-3.3,0.9c-0.9,0.6-3,2.3-5,4.1l-3.2,3.1c0,0-0.8,0.8-0.8,1.1
		c0,0.2,0.2,0.5,0.7,1.1c3.4,3.9,6.2,7.1,8.9,10c0.8,0.8,1.7,1.3,2.8,1.4h0.9c0,0,0.2,0.9,0,0.9c-0.9,0-2.4,0-4,0
		c-1.4,0-2.7,0-4.4,0c-0.2,0-0.4-0.7-0.1-0.8h0.8c0,0,0.8-0.4,0.8-0.5c0-0.2-0.2-0.5-0.5-0.8c-0.7-0.8-1.5-1.8-3-3.3l-2.8-3.2
		c-2-2.3-2.6-3-3.4-3c-0.5,0-0.6,0.5-0.6,1.7v4.6c0,3.8,0,4.3,2,4.5h0.9c0,0,0.1,0.9,0,0.9c-1.8,0-3,0-4.4,0c-1.4,0-2.7,0-4.1,0
		c-0.2,0-0.2-0.6,0-0.8h0.7c1.9-0.4,2-0.8,2-4.5V5.9H428.8z"/>
	<path class="st0" d="M457.5,6c0-3.8,0-4.4-2.1-4.5h-0.9c0,0-0.1-0.8,0-0.9c1.8,0,3,0,4.5,0s2.6,0,4.4,0c0.2,0,0.2,0.7,0,0.9h-0.9
		c-2.1,0.2-2.1,0.8-2.1,4.6v12.7c0,3.8,0,4.3,2.1,4.5h0.9c0,0,0.1,0.9,0,0.9c-1.8,0-3,0-4.4,0s-2.7,0-4.5,0c-0.2,0-0.2-0.7,0-0.8
		h0.9c2.1-0.4,2.1-0.8,2.1-4.6V6z"/>
	<path class="st0" d="M492.7,18c0,1.1,0,5.3,0,6.3c0,0.2-0.2,0.4-0.7,0.4c-0.5-0.6-1.4-1.9-4.5-5.3l-8.3-9.4c-0.9-1.1-3.4-4-4.1-4.9
		l0,0c0,0-0.2,1.2-0.2,2.4v7.8c0,1.7,0,6.3,0.6,7.3c0.2,0.4,0.9,0.6,1.8,0.7h1.1c0,0,0.2,0.8,0,0.9c-1.7,0-2.8,0-4.1,0
		c-1.5,0-2.5,0-3.7,0c-0.2-0.1-0.2-0.7,0-0.8h0.9c0.8-0.2,1.4-0.5,1.5-0.8c0.5-1.3,0.5-5.7,0.5-7.3V4.9c0-0.9,0-1.8-0.8-2.6
		c-0.5-0.5-1.3-0.7-2.3-0.8h-0.6c0,0-0.2-0.8,0-0.9c1.5,0,3.4,0,4,0s1.2,0,1.7,0c0.7,1.8,5,6.5,6,7.8l3.4,3.9
		c2.5,2.7,4.1,4.7,5.9,6.4l0,0c0,0,0.1-0.7,0.1-1.5V9.5c0-1.7,0-6.3-0.7-7.3c-0.2-0.4-0.8-0.6-2.3-0.7h-0.6c0,0-0.2-0.8,0-0.9
		c1.7,0,2.8,0,4.1,0c1.5,0,2.5,0,3.7,0c0.2,0.2,0.2,0.7,0,0.9h-0.5c-1.2,0.2-1.9,0.6-2,0.8c-0.6,1.3-0.5,5.7-0.5,7.3v8.5L492.7,18z"
		/>
	<path class="st0" d="M522.9,20.5c0,1.4,0.2,2.3,0.8,2.5c0,0,0,0.4,0,0.5c-0.5,0-1.1,0.1-1.8,0.4c-1.9,0.5-4.5,0.9-6.4,0.9
		c-4.3,0-8.2-1.2-10.9-3.9c-2.1-2.1-3.3-5-3.3-8.1s0.9-6,3.2-8.4c2.4-2.5,5.9-4.1,11.3-4.1c2,0,3.9,0.4,4.5,0.6
		c0.7,0.1,1.8,0.4,2.3,0.4c0,1.2,0.2,3.1,0.6,5.2c0,0.2-0.7,0.4-0.9,0c-0.9-3.8-3.7-5.1-7.3-5.1c-6.9,0-10,5-10,10.3
		c0,6.9,3.6,12.2,10.7,12.2c2.3,0,3.6-0.5,3.9-1.1c0.1-0.2,0.4-0.9,0.4-2v-1.4c0-3,0-3.2-2.4-3.4l-1.5-0.2c0,0-0.2-0.8,0-0.9
		c1.1,0,3,0,5.1,0c1.4,0,2.6,0,3.8,0c0.2,0.1,0.2,0.7,0,0.9h-0.6c-1.5,0.2-1.5,1.2-1.5,3.1v2L522.9,20.5z"/>
</g>
</svg>
