<?xml version="1.0" encoding="utf-8"?>
<!-- Generator: Adobe Illustrator 28.1.0, SVG Export Plug-In . SVG Version: 6.00 Build 0)  -->
<svg version="1.1" id="_レイヤー_2" xmlns="http://www.w3.org/2000/svg" xmlns:xlink="http://www.w3.org/1999/xlink" x="0px"
	 y="0px" viewBox="0 0 504 108.7" style="enable-background:new 0 0 504 108.7;" xml:space="preserve">
<style type="text/css">
	.st0{fill:#42210B;}
</style>
<g id="BASE">
	<path class="st0" d="M5.1,9.5C5.1,4,5,3.1,2.6,2.9L0.8,2.6c0,0-0.3-1.1,0-1.4C4,1,7.9,0.8,13.7,0.8c3.6,0,7,0.3,9.7,1.7
		c2.8,1.4,4.8,4,4.8,8c0,5.5-4.4,8.5-7.2,9.7c-0.2,0.3,0,0.9,0.3,1.4c4.6,7.5,7.7,12.1,11.6,15.3c0.9,0.8,2.4,1.5,3.9,1.6
		c0.3,0,0.3,0.6,0,0.8c-0.5,0.1-1.4,0.2-2.5,0.2c-4.9,0-7.8-1.4-11.9-7.2c-1.5-2.2-3.8-6.1-5.6-8.7c-0.9-1.3-1.8-1.8-4.1-1.8
		c-2.6,0-2.8,0-2.8,1.3v7.2c0,6.1,0,6.8,3.4,7.2h1.1c0,0,0.2,1.4,0,1.6c-2.6,0-4.6-0.1-6.9-0.1s-4.5,0-7.1,0.1
		c-0.3-0.1-0.5-1-0.1-1.4h1.4C4.9,37.1,5,36.3,5,30.3V9.5H5.1z M9.9,17.8c0,1,0,1.7,0.2,2c0.1,0.2,1,0.3,3.9,0.3
		c2.1,0,4.3-0.2,6-1.5c1.6-1.3,2.9-3.2,2.9-7.1c0-4.6-2.9-8.8-9.2-8.8c-3.6,0-3.8,0.2-3.8,1.8v13.4V17.8z"/>
	<path class="st0" d="M49.2,9.5c0-6,0-6.9-3.6-7.2h-0.9c0,0-0.2-1.4,0.1-1.5c2.4,0,4.4,0.2,6.8,0.2h10.8c3.7,0,7.1,0,7.8-0.2
		c0.3,0.9,0.7,5.2,0.9,7.7c-0.2,0.3-1.1,0.5-1.4,0c-0.9-2.8-1.4-4.7-4.4-5.5c-1.3-0.2-3.1-0.3-5.6-0.3h-4.1c-1.7,0-1.7,0.1-1.7,2.3
		v11.5c0,1.6,0.2,1.6,2,1.6h3.3c2.4,0,4.3,0,4.8-0.3c0.7-0.2,1.1-0.6,1.4-2l0.5-2.4c0,0,1.3-0.3,1.5,0c0,1.4-0.2,3.7-0.2,5.7
		s0.2,4.3,0.2,5.5c-0.2,0.5-1.3,0.5-1.5,0l-0.5-2.3c-0.2-1-0.6-2-1.8-2.2c-0.8-0.2-2.2-0.3-4.4-0.3h-3.3c-1.7,0-2,0-2,1.6v8.2
		c0,3.1,0.2,5.1,1.1,6c0.7,0.7,2,1.4,7,1.4c4.4,0,6.1-0.2,7.4-0.9c1-0.6,2.5-2.5,4.1-5.6c0.5-0.2,1.1,0,1.4,0.5
		c-0.5,2-1.8,6.4-2.6,8c-5.2,0-10.3-0.1-15.4-0.1h-5.2c-2.4,0-4.4,0-7.8,0.1c-0.3-0.1-0.5-1,0-1.4h2c3.3-0.5,3.6-1.4,3.6-7.4V9.5
		H49.2z"/>
	<path class="st0" d="M89.2,4.8C93.5,1.5,98.8,0,104.8,0c3.1,0,7.5,0.6,10.2,1.4c0.7,0.2,1.1,0.3,1.6,0.2c0,1.4,0.3,4.9,0.8,8.5
		c-0.2,0.5-1.1,0.5-1.5,0.1c-0.9-3.9-3.4-8.4-11.8-8.4c-8.8,0-16.3,5.6-16.3,17.5S95.5,38,104.9,38c7.5,0,10.7-4.8,12.1-8.3
		c0.5-0.2,1.3-0.1,1.5,0.2c-0.3,3-2,6.8-2.8,7.9c-0.7,0-1.4,0.3-2,0.6c-1.3,0.5-5.4,1.4-9.1,1.4c-5.2,0-10.1-1-14.4-3.8
		c-4.6-3.2-8.2-8.4-8.2-15.9c0-6.4,2.9-11.8,7.2-15.3L89.2,4.8z"/>
	<path class="st0" d="M126.5,20.3c0-11.5,8.6-20.3,20.5-20.3c13.3,0,20,9.5,20,19.8c0,11.6-8.8,20.1-20,20.1
		C134.2,39.9,126.5,30.7,126.5,20.3z M161.2,21.5c0-9.5-4.3-19.8-15.2-19.8c-6,0-13.8,4.1-13.8,16.7c0,8.5,4.1,19.5,15.5,19.5
		c6.9,0,13.4-5.2,13.4-16.5L161.2,21.5z"/>
	<path class="st0" d="M195.2,23.6c1.3,2.6,2.5,5.3,3.9,7.9l0,0c1.6-2.8,3-5.7,4.5-8.6l5.4-11c2.6-5.3,4.3-8.4,4.4-11
		c2,0.2,3.2,0.2,4.4,0.2c1.4,0,3.3,0,5.2-0.2c0.3,0.2,0.3,1.3,0,1.4h-1.3c-3.6,0.5-4.1,1.6-4,5.6c0,6.1,0.1,16.8,0.6,25
		c0.1,2.9,0,4.4,2.9,4.7h1.8c0,0,0.3,1.4,0,1.6c-2.4,0-4.7-0.1-6.8-0.1s-4.6,0-7,0.1c-0.5-0.2-0.5-1,0-1.4h1.6
		c2.9-0.5,2.9-1.4,2.9-5.1l-0.2-24l0,0c-0.5,0.7-2.6,5.3-3.8,7.5l-5.2,10.1c-2.6,5.1-5.2,10.5-6.2,13.1c0,0.1-0.3,0.2-0.6,0.2
		c0,0-0.5,0-0.5-0.2c-0.9-3.1-3.8-8.7-5.1-11.5l-5.2-11.1c-1.3-2.6-2.4-5.6-3.7-8.3h-0.1c-0.2,3.6-0.5,6.9-0.6,10.2
		c-0.1,3.6-0.5,8.6-0.5,13.6c0,4.3,0.3,5.2,2.6,5.4h2.2c0,0,0.3,1.4,0,1.6c-2,0-4.3-0.1-6.3-0.1c-1.8,0-3.9,0-5.9,0.1
		c-0.3-0.2-0.5-1.1-0.1-1.4h1.3c2.4-0.5,3.2-0.9,3.6-4.8c0.3-3.8,0.6-7,0.9-12.6c0.3-4.8,0.5-9.7,0.6-12.9c0.1-3.7-0.3-4.5-3.8-4.9
		h-0.9c0,0-0.2-1.3,0.2-1.5c1.7,0,3.1,0.2,4.5,0.2s2.9,0,4.8-0.2c-0.2,2.3,1.3,5.9,3,9.5l6.5,13.3L195.2,23.6z"/>
	<path class="st0" d="M252.7,23.6c1.3,2.6,2.5,5.3,3.9,7.9l0,0c1.6-2.8,3-5.7,4.5-8.6l5.4-11c2.6-5.3,4.3-8.4,4.4-11
		c2,0.2,3.2,0.2,4.4,0.2c1.4,0,3.3,0,5.2-0.2c0.3,0.2,0.3,1.3,0,1.4h-1.3c-3.6,0.5-4.1,1.6-4,5.6c0,6.1,0.1,16.8,0.6,25
		c0.1,2.9,0,4.4,2.9,4.7h1.8c0,0,0.3,1.4,0,1.6c-2.4,0-4.7-0.1-6.8-0.1s-4.6,0-7,0.1c-0.5-0.2-0.5-1,0-1.4h1.6
		c2.9-0.5,2.9-1.4,2.9-5.1l-0.2-24l0,0c-0.5,0.7-2.6,5.3-3.8,7.5l-5.2,10.1c-2.6,5.1-5.2,10.5-6.2,13.1c0,0.1-0.3,0.2-0.6,0.2
		c0,0-0.5,0-0.5-0.2c-0.9-3.1-3.8-8.7-5.1-11.5l-5.2-11.1c-1.3-2.6-2.4-5.6-3.7-8.3h-0.1c-0.2,3.6-0.5,6.9-0.6,10.2
		c-0.1,3.6-0.5,8.6-0.5,13.6c0,4.3,0.3,5.2,2.6,5.4h2.2c0,0,0.3,1.4,0,1.6c-2,0-4.3-0.1-6.3-0.1c-1.8,0-3.9,0-5.9,0.1
		c-0.3-0.2-0.5-1.1-0.1-1.4h1.3c2.4-0.5,3.2-0.9,3.6-4.8c0.3-3.8,0.6-7,0.9-12.6c0.3-4.8,0.5-9.7,0.6-12.9c0.1-3.7-0.3-4.5-3.8-4.9
		h-0.9c0,0-0.2-1.3,0.2-1.5c1.7,0,3.1,0.2,4.5,0.2c1.4,0,2.9,0,4.8-0.2c-0.2,2.3,1.3,5.9,3,9.5l6.5,13.3L252.7,23.6z"/>
	<path class="st0" d="M295.2,9.5c0-6,0-6.9-3.6-7.2h-0.9c0,0-0.2-1.4,0.1-1.5c2.4,0,4.4,0.2,6.8,0.2h10.8c3.7,0,7.1,0,7.8-0.2
		c0.3,0.9,0.7,5.2,0.9,7.7c-0.2,0.3-1.1,0.5-1.4,0c-0.9-2.8-1.4-4.7-4.4-5.5c-1.3-0.2-3.1-0.3-5.6-0.3h-4.1c-1.7,0-1.7,0.1-1.7,2.3
		v11.5c0,1.6,0.2,1.6,2,1.6h3.3c2.4,0,4.3,0,4.8-0.3c0.7-0.2,1.1-0.6,1.4-2l0.5-2.4c0,0,1.3-0.3,1.5,0c0,1.4-0.2,3.7-0.2,5.7
		s0.2,4.3,0.2,5.5c-0.2,0.5-1.3,0.5-1.5,0l-0.5-2.3c-0.2-1-0.6-2-1.8-2.2c-0.8-0.2-2.2-0.3-4.4-0.3h-3.3c-1.7,0-2,0-2,1.6v8.2
		c0,3.1,0.2,5.1,1.1,6c0.7,0.7,2,1.4,7,1.4c4.4,0,6.1-0.2,7.4-0.9c1-0.6,2.5-2.5,4.1-5.6c0.5-0.2,1.1,0,1.4,0.5
		c-0.5,2-1.8,6.4-2.6,8c-5.2,0-10.3-0.1-15.4-0.1h-5.2c-2.4,0-4.4,0-7.8,0.1c-0.3-0.1-0.5-1,0-1.4h2c3.3-0.5,3.6-1.4,3.6-7.4V9.5
		H295.2z"/>
	<path class="st0" d="M364.4,29.1c0,1.7,0,8.6,0.2,10.1c-0.1,0.3-0.5,0.6-1.1,0.6c-0.7-0.9-2.4-3-7.4-8.7l-13.3-15.2
		c-1.5-1.8-5.5-6.5-6.7-7.8l0,0c-0.2,0.7-0.3,2.1-0.3,3.8v12.5c0,2.6,0,10.2,1,11.9c0.3,0.7,1.5,1,3,1.1h1.7c0.3,0.6,0.3,1.4,0,1.6
		c-2.5,0-4.6-0.1-6.8-0.1c-2.4,0-3.9,0-6,0.1c-0.5-0.2-0.5-1-0.1-1.4h1.6c1.4-0.3,2.3-0.7,2.5-1.4c0.8-2.1,0.8-9.1,0.8-11.8V7.8
		c0-1.6,0-2.9-1.3-4.1c-0.8-0.8-2.2-1.3-3.6-1.4h-0.9c0,0-0.3-1.3,0-1.5c2.4,0.2,5.5,0.2,6.5,0.2c0.9,0,2,0,2.6-0.2
		c1.1,3,7.9,10.6,9.9,12.6l5.6,6.2c3.9,4.5,6.8,7.7,9.5,10.5h0.1c0,0,0.2-1.3,0.2-2.4V15.4c0-2.8,0-10.2-1.1-11.9
		C361,3,360,2.5,357.8,2.3h-0.9c0,0-0.3-1.4,0-1.5c2.6,0,4.6,0.2,6.8,0.2c2.4,0,3.9,0,6-0.2c0.5,0.3,0.5,1.1,0,1.4h-0.8
		c-1.8,0.5-3,0.9-3.2,1.4c-0.9,2.1-0.9,9.2-0.9,11.8v13.8L364.4,29.1z"/>
	<path class="st0" d="M383.1,8.4c0-4-0.3-5.3-2.8-5.6l-1.3-0.2c0,0-0.5-1.1,0-1.4c4.9-0.2,9.5-0.5,14.5-0.5s9,0.3,12.6,1.7
		c7.8,2.9,11.7,9.4,11.7,17s-3.6,13.6-10.1,17.1c-3.8,2-8.5,2.8-12.9,2.8c-3.7,0-7.4-0.5-9.4-0.5c-2.4,0-4.5,0-7.1,0.1
		c-0.3-0.1-0.5-1,0-1.4h1.4c3.3-0.6,3.4-1.4,3.4-7.4V8.4H383.1z M387.9,29c0,3.1,0.2,4.9,1.1,6.3c1.3,1.8,3.4,2.4,7.1,2.4
		c11.1,0,16.2-7.4,16.2-18c0-6.3-3-17-18.2-17c-3.3,0-5.3,0.5-5.7,0.8s-0.6,1.8-0.6,4.4v21.3L387.9,29z"/>
	<path class="st0" d="M431.1,9.5c0-6,0-6.9-3.6-7.2h-0.9c0,0-0.2-1.4,0.1-1.5c2.4,0,4.4,0.2,6.8,0.2h10.8c3.7,0,7.1,0,7.8-0.2
		c0.3,0.9,0.7,5.2,0.9,7.7c-0.2,0.3-1.1,0.5-1.4,0c-0.9-2.8-1.4-4.7-4.4-5.5c-1.3-0.2-3.1-0.3-5.6-0.3h-4.1c-1.7,0-1.7,0.1-1.7,2.3
		v11.5c0,1.6,0.2,1.6,2,1.6h3.3c2.4,0,4.3,0,4.8-0.3c0.7-0.2,1.1-0.6,1.4-2l0.5-2.4c0,0,1.3-0.3,1.5,0c0,1.4-0.2,3.7-0.2,5.7
		s0.2,4.3,0.2,5.5c-0.2,0.5-1.3,0.5-1.5,0l-0.5-2.3c-0.2-1-0.6-2-1.8-2.2c-0.8-0.2-2.2-0.3-4.4-0.3h-3.3c-1.7,0-2,0-2,1.6v8.2
		c0,3.1,0.2,5.1,1.1,6c0.7,0.7,2,1.4,7,1.4c4.4,0,6.1-0.2,7.4-0.9c1-0.6,2.5-2.5,4.1-5.6c0.5-0.2,1.1,0,1.4,0.5
		c-0.5,2-1.8,6.4-2.6,8c-5.2,0-10.3-0.1-15.4-0.1h-5.2c-2.4,0-4.4,0-7.8,0.1c-0.3-0.1-0.5-1,0-1.4h2c3.3-0.5,3.6-1.4,3.6-7.4V9.5
		H431.1z"/>
	<path class="st0" d="M469.2,8.4c0-4-0.3-5.3-2.8-5.6l-1.3-0.2c0,0-0.5-1.1,0-1.4c4.9-0.2,9.5-0.5,14.5-0.5s9,0.3,12.6,1.7
		c7.8,2.9,11.7,9.4,11.7,17s-3.6,13.6-10.1,17.1c-3.8,2-8.5,2.8-12.9,2.8c-3.7,0-7.4-0.5-9.4-0.5c-2.4,0-4.5,0-7.1,0.1
		c-0.3-0.1-0.5-1,0-1.4h1.4c3.3-0.6,3.4-1.4,3.4-7.4V8.4H469.2z M473.9,29c0,3.1,0.2,4.9,1.1,6.3c1.3,1.8,3.4,2.4,7.1,2.4
		c11.1,0,16.2-7.4,16.2-18c0-6.3-3-17-18.2-17c-3.3,0-5.3,0.5-5.7,0.8c-0.5,0.3-0.6,1.8-0.6,4.4v21.3L473.9,29z"/>
	<path class="st0" d="M110.5,78.5c0-5.5-0.1-6.4-2.5-6.7l-1.8-0.2c0,0-0.5-1.1,0-1.4c3.2-0.2,7.1-0.5,12.9-0.5c3.6,0,7,0.3,9.5,1.7
		c2.8,1.4,4.8,4,4.8,8c0,5.5-4.4,8.5-7.2,9.7c-0.3,0.3,0,0.9,0.3,1.4c4.6,7.5,7.7,12.1,11.6,15.3c0.9,0.8,2.4,1.5,4,1.6
		c0.2,0,0.3,0.6,0,0.8c-0.6,0.1-1.5,0.2-2.5,0.2c-4.8,0-7.8-1.4-11.9-7.2c-1.5-2.2-3.8-6.1-5.6-8.7c-0.9-1.3-1.8-1.8-4.1-1.8
		c-2.5,0-2.8,0-2.8,1.3v7.2c0,6.1,0.1,6.8,3.4,7.2h1.1c0,0,0.2,1.4,0,1.6c-2.5,0-4.6-0.1-6.9-0.1s-4.5,0-7.1,0.1
		c-0.3-0.1-0.5-1-0.1-1.4h1.5c3.3-0.6,3.4-1.4,3.4-7.4V78.6L110.5,78.5z M115.2,86.7c0,1,0,1.7,0.2,2c0.1,0.2,1,0.3,3.9,0.3
		c2.1,0,4.3-0.2,6-1.5c1.5-1.3,2.9-3.2,2.9-7.1c0-4.6-2.9-8.8-9.2-8.8c-3.6,0-3.8,0.2-3.8,1.8v13.4L115.2,86.7z"/>
	<path class="st0" d="M171.9,94.4c-0.5-1.3-0.7-1.4-2.4-1.4h-8.7c-1.4,0-1.8,0.1-2.2,1.4l-2,6.1c-0.9,2.6-1.3,4.1-1.3,4.8
		s0.3,1,1.7,1.1h2c0,0,0.5,1.4,0,1.6c-1.5,0-3.3,0-6-0.1c-2,0-3.9,0-5.5,0.1c-0.3-0.2-0.5-1.1,0-1.4h2c1.4-0.2,2.6-0.9,3.4-3
		c1-2.6,2.6-6.4,5.1-12.9l5.9-15.5c0.8-2.1,1.1-3.2,0.9-4.1c1.4-0.5,2.4-1.4,3-2.2c0.3,0,0.8,0,0.9,0.5c0.8,2.5,1.7,5.2,2.5,7.7
		l7.9,23.1c1.6,4.9,2.4,5.7,4.8,6.1h1.6c0,0,0.2,1.4,0,1.6c-2.4,0-4.4-0.1-7-0.1c-2.8,0-4.9,0-6.7,0.1c-0.5-0.2-0.5-1.1,0-1.4h1.7
		c1.1-0.2,2-0.6,2-1.1c0-0.7-0.3-1.7-0.8-3.1l-2.5-7.8L171.9,94.4z M160.5,89.4c-0.5,1.4-0.5,1.4,1.3,1.4h7.1c1.7,0,1.8-0.2,1.3-1.8
		l-3.1-9.4c-0.5-1.4-0.9-3-1.4-3.7l0,0c0,0-0.8,1.6-1.4,3.3l-3.7,10L160.5,89.4z"/>
	<path class="st0" d="M228.8,98c0,1.7,0,8.6,0.2,10.1c-0.1,0.3-0.5,0.6-1.1,0.6c-0.7-0.9-2.4-3-7.4-8.7l-13.3-15.2
		c-1.5-1.8-5.5-6.5-6.7-7.8l0,0c-0.2,0.7-0.3,2.1-0.3,3.8v12.5c0,2.6,0,10.2,1,11.9c0.3,0.7,1.5,1,3,1.1h1.7c0.3,0.6,0.3,1.4,0,1.6
		c-2.5,0-4.6-0.1-6.8-0.1c-2.4,0-3.9,0-6,0.1c-0.5-0.2-0.5-1-0.1-1.4h1.6c1.4-0.3,2.3-0.7,2.5-1.4c0.8-2.1,0.8-9.1,0.8-11.8V76.7
		c0-1.6,0-2.9-1.3-4.1c-0.8-0.8-2.2-1.3-3.6-1.4h-0.9c0,0-0.3-1.3,0-1.5c2.4,0.2,5.5,0.2,6.5,0.2c0.9,0,2,0,2.6-0.2
		c1.1,3,7.9,10.6,9.9,12.6l5.6,6.2c3.9,4.5,6.8,7.7,9.5,10.5h0.1c0,0,0.2-1.3,0.2-2.4V84.3c0-2.8,0-10.2-1.1-11.9
		c-0.3-0.5-1.3-0.9-3.6-1.1h-0.9c0,0-0.3-1.4,0-1.5c2.6,0,4.6,0.2,6.8,0.2c2.4,0,3.9,0,6-0.2c0.5,0.3,0.5,1.1,0,1.4h-0.8
		c-1.8,0.5-3,0.9-3.2,1.4c-0.9,2.1-0.9,9.2-0.9,11.8v13.8L228.8,98z"/>
	<path class="st0" d="M247.8,78.5c0-6.1,0-7-3.4-7.2H243c0,0-0.2-1.4,0.1-1.5c2.9,0,4.7,0.2,7.2,0.2c2.3,0,4.3,0,6.7-0.2
		c0.3,0.2,0.5,1.3,0,1.4h-1c-3.3,0.5-3.4,1.4-3.4,7.4v6.7c0,1,0,2.2,0.8,2.2c0.5,0,1.1-0.3,1.6-0.6c0.8-0.7,2.3-2.2,3-2.8l6.2-6.2
		c1.1-1,3.9-4,4.5-4.8c0.3-0.5,0.5-0.7,0.5-0.9s-0.2-0.5-0.9-0.6l-1.6-0.3c0,0-0.3-1.1,0.1-1.4c2,0,4.4,0.2,6.3,0.2s4,0,5.7-0.2
		c0.5,0.3,0.5,1.1,0,1.4c-1.5,0-3.8,0.7-5.4,1.6c-1.6,0.9-4.8,3.7-8,6.7l-5.2,4.9c-0.8,0.8-1.4,1.4-1.4,1.8s0.3,0.9,1,1.8
		c5.5,6.2,9.9,11.5,14.4,16.2c1.4,1.4,2.6,2.1,4.6,2.4h1.6c0,0,0.2,1.4-0.1,1.6c-1.5,0-3.8-0.1-6.4-0.1c-2.4,0-4.4,0-7,0.1
		c-0.5,0-0.6-1-0.2-1.4l1.4-0.2c0.8-0.1,1.4-0.3,1.4-0.6c0-0.3-0.5-0.8-0.8-1.4c-1.1-1.4-2.6-3-4.8-5.4l-4.6-5.2
		c-3.3-3.7-4.3-4.8-5.6-4.8c-0.9,0-0.9,0.8-0.9,2.8v7.5c0,6.1,0,6.9,3.3,7.2h1.5c0,0,0.2,1.4,0,1.6c-2.9,0-4.8-0.1-7-0.1
		c-2.4,0-4.4,0-6.7,0.1c-0.3-0.1-0.5-1,0-1.4h1.1c3.1-0.6,3.2-1.4,3.2-7.4V78.9L247.8,78.5z"/>
	<path class="st0" d="M293,78.6c0-6.1,0-7.1-3.6-7.4H288c0,0-0.2-1.4,0.1-1.5c2.9,0,4.8,0.2,7.2,0.2s4.3,0,7.1-0.2
		c0.3,0.2,0.5,1.3,0,1.4h-1.4c-3.4,0.5-3.6,1.4-3.6,7.5V99c0,6.1,0,6.9,3.6,7.4h1.4c0,0,0.2,1.4,0,1.6c-2.9,0-4.8-0.1-7.1-0.1
		s-4.4,0-7.2,0.1c-0.3-0.1-0.5-1-0.1-1.4h1.4c3.4-0.6,3.6-1.4,3.6-7.5V78.7V78.6z"/>
	<path class="st0" d="M348.4,98c0,1.7,0,8.6,0.2,10.1c-0.1,0.3-0.5,0.6-1.1,0.6c-0.7-0.9-2.4-3-7.4-8.7l-13.3-15.2
		c-1.5-1.8-5.5-6.5-6.7-7.8l0,0c-0.2,0.7-0.3,2.1-0.3,3.8v12.5c0,2.6,0,10.2,1,11.9c0.3,0.7,1.5,1,3,1.1h1.7c0.3,0.6,0.3,1.4,0,1.6
		c-2.5,0-4.6-0.1-6.8-0.1c-2.4,0-3.9,0-6,0.1c-0.5-0.2-0.5-1-0.1-1.4h1.6c1.4-0.3,2.3-0.7,2.5-1.4c0.8-2.1,0.8-9.1,0.8-11.8V76.7
		c0-1.6,0-2.9-1.3-4.1c-0.8-0.8-2.2-1.3-3.6-1.4h-0.9c0,0-0.3-1.3,0-1.5c2.4,0.2,5.5,0.2,6.5,0.2c0.9,0,2,0,2.6-0.2
		c1.1,3,7.9,10.6,9.9,12.6l5.6,6.2c3.9,4.5,6.8,7.7,9.5,10.5h0.1c0,0,0.2-1.3,0.2-2.4V84.3c0-2.8,0-10.2-1.1-11.9
		c-0.3-0.5-1.3-0.9-3.6-1.1h-0.9c0,0-0.3-1.4,0-1.5c2.6,0,4.6,0.2,6.8,0.2c2.4,0,3.9,0,6-0.2c0.5,0.3,0.5,1.1,0,1.4h-0.8
		c-1.8,0.5-3,0.9-3.2,1.4c-0.9,2.1-0.9,9.2-0.9,11.8v13.8L348.4,98z"/>
	<path class="st0" d="M395.8,101.9c0,2.3,0.3,3.7,1.4,4.1c0.1,0.1,0.1,0.5,0,0.7c-0.7,0-1.7,0.2-2.9,0.5c-3.1,0.8-7.2,1.5-10.3,1.5
		c-6.9,0-13.1-2-17.6-6.4c-3.4-3.4-5.3-8-5.3-13.1s1.6-9.9,5.2-13.7c3.8-4,9.5-6.7,18.3-6.7c3.3,0,6.3,0.6,7.2,0.8
		c1.1,0.2,2.9,0.7,3.6,0.5c0,2,0.3,4.9,0.9,8.4c-0.1,0.5-1.1,0.5-1.5,0.1c-1.6-6.2-6-8.2-11.8-8.2c-11.1,0-16.1,7.9-16.1,16.5
		c0,11,5.7,19.8,17.2,19.8c3.6,0,5.7-0.8,6.3-1.7c0.2-0.3,0.6-1.4,0.6-3.3v-2.3c0-4.8-0.2-5.2-3.8-5.6l-2.5-0.2c0,0-0.5-1.3,0-1.5
		c1.7,0.1,4.8,0.2,8.3,0.2c2.3,0,4.3,0,6.1-0.2c0.5,0.2,0.5,1.1,0,1.5h-0.9c-2.4,0.3-2.4,2-2.4,4.9v3.2L395.8,101.9z"/>
</g>
</svg>
